<svg xmlns="http://www.w3.org/2000/svg" viewBox="0 0 154.588 634.163">
  <g data-name="Group 1781" fill="#cbcbcb">
    <path data-name="Rectangle 868" d="M0 634.163v-5.647h5.647v5.647z"/>
    <path data-name="Rectangle 869" d="M0 604.233v-5.647h5.647v5.647z"/>
    <path data-name="Rectangle 870" d="M0 574.304v-5.647h5.647v5.647z"/>
    <path data-name="Rectangle 871" d="M0 544.374v-5.647h5.647v5.647z"/>
    <path data-name="Rectangle 872" d="M0 514.446v-5.648h5.647v5.648z"/>
    <path data-name="Rectangle 873" d="M0 484.516v-5.647h5.647v5.647z"/>
    <path data-name="Rectangle 874" d="M0 454.587v-5.647h5.647v5.647z"/>
    <path data-name="Rectangle 875" d="M0 424.657v-5.647h5.647v5.647z"/>
    <path data-name="Rectangle 876" d="M0 394.728v-5.647h5.647v5.647z"/>
    <path data-name="Rectangle 877" d="M0 364.798v-5.647h5.647v5.647z"/>
    <path data-name="Rectangle 878" d="M0 334.87v-5.647h5.647v5.647z"/>
    <path data-name="Rectangle 879" d="M0 304.94v-5.647h5.647v5.647z"/>
    <path data-name="Rectangle 880" d="M0 275.011v-5.647h5.647v5.647z"/>
    <path data-name="Rectangle 881" d="M0 245.081v-5.647h5.647v5.647z"/>
    <path data-name="Rectangle 882" d="M0 215.152v-5.647h5.647v5.647z"/>
    <path data-name="Rectangle 883" d="M0 185.222v-5.647h5.647v5.647z"/>
    <path data-name="Rectangle 884" d="M0 155.294v-5.647h5.647v5.647z"/>
    <path data-name="Rectangle 885" d="M0 125.364v-5.647h5.647v5.647z"/>
    <path data-name="Rectangle 886" d="M0 95.435v-5.647h5.647v5.647z"/>
    <path data-name="Rectangle 887" d="M0 65.505v-5.647h5.647v5.647z"/>
    <path data-name="Rectangle 888" d="M0 35.576v-5.647h5.647v5.647z"/>
    <path data-name="Rectangle 889" d="M0 5.647V0h5.647v5.647z"/>
    <path data-name="Rectangle 890" d="M29.788 634.163v-5.647h5.647v5.647z"/>
    <path data-name="Rectangle 891" d="M29.789 604.234v-5.647h5.647v5.647z"/>
    <path data-name="Rectangle 892" d="M29.789 574.304v-5.647h5.647v5.647z"/>
    <path data-name="Rectangle 893" d="M29.789 544.375v-5.647h5.647v5.647z"/>
    <path data-name="Rectangle 894" d="M29.789 514.446v-5.647h5.647v5.647z"/>
    <path data-name="Rectangle 895" d="M29.789 484.516v-5.647h5.647v5.647z"/>
    <path data-name="Rectangle 896" d="M29.789 454.587v-5.647h5.647v5.647z"/>
    <path data-name="Rectangle 897" d="M29.789 424.657v-5.647h5.647v5.647z"/>
    <path data-name="Rectangle 898" d="M29.789 394.728v-5.647h5.647v5.647z"/>
    <path data-name="Rectangle 899" d="M29.789 364.799v-5.647h5.647v5.647z"/>
    <path data-name="Rectangle 900" d="M29.789 334.869v-5.647h5.647v5.647z"/>
    <path data-name="Rectangle 901" d="M29.789 304.94v-5.647h5.647v5.647z"/>
    <path data-name="Rectangle 902" d="M29.789 275.011v-5.647h5.647v5.647z"/>
    <path data-name="Rectangle 903" d="M29.789 245.081v-5.647h5.647v5.647z"/>
    <path data-name="Rectangle 904" d="M29.789 215.152v-5.647h5.647v5.647z"/>
    <path data-name="Rectangle 905" d="M29.789 185.223v-5.647h5.647v5.647z"/>
    <path data-name="Rectangle 906" d="M29.789 155.293v-5.647h5.647v5.647z"/>
    <path data-name="Rectangle 907" d="M29.789 125.364v-5.647h5.647v5.647z"/>
    <path data-name="Rectangle 908" d="M29.789 95.435v-5.647h5.647v5.647z"/>
    <path data-name="Rectangle 909" d="M29.789 65.505v-5.647h5.647v5.647z"/>
    <path data-name="Rectangle 910" d="M29.789 35.576v-5.647h5.647v5.647z"/>
    <path data-name="Rectangle 911" d="M29.788 5.647V0h5.647v5.647z"/>
    <path data-name="Rectangle 912" d="M59.577 634.163v-5.647h5.647v5.647z"/>
    <path data-name="Rectangle 913" d="M59.577 604.234v-5.647h5.647v5.647z"/>
    <path data-name="Rectangle 914" d="M59.577 574.304v-5.647h5.647v5.647z"/>
    <path data-name="Rectangle 915" d="M59.577 544.375v-5.647h5.647v5.647z"/>
    <path data-name="Rectangle 916" d="M59.577 514.446v-5.647h5.647v5.647z"/>
    <path data-name="Rectangle 917" d="M59.577 484.516v-5.647h5.647v5.647z"/>
    <path data-name="Rectangle 918" d="M59.577 454.587v-5.647h5.647v5.647z"/>
    <path data-name="Rectangle 919" d="M59.577 424.657v-5.647h5.647v5.647z"/>
    <path data-name="Rectangle 920" d="M59.577 394.728v-5.647h5.647v5.647z"/>
    <path data-name="Rectangle 921" d="M59.577 364.799v-5.647h5.647v5.647z"/>
    <path data-name="Rectangle 922" d="M59.577 334.869v-5.647h5.647v5.647z"/>
    <path data-name="Rectangle 923" d="M59.577 304.94v-5.647h5.647v5.647z"/>
    <path data-name="Rectangle 924" d="M59.577 275.011v-5.647h5.647v5.647z"/>
    <path data-name="Rectangle 925" d="M59.577 245.081v-5.647h5.647v5.647z"/>
    <path data-name="Rectangle 926" d="M59.577 215.152v-5.647h5.647v5.647z"/>
    <path data-name="Rectangle 927" d="M59.577 185.223v-5.647h5.647v5.647z"/>
    <path data-name="Rectangle 928" d="M59.577 155.293v-5.647h5.647v5.647z"/>
    <path data-name="Rectangle 929" d="M59.577 125.364v-5.647h5.647v5.647z"/>
    <path data-name="Rectangle 930" d="M59.577 95.435v-5.647h5.647v5.647z"/>
    <path data-name="Rectangle 931" d="M59.577 65.505v-5.647h5.647v5.647z"/>
    <path data-name="Rectangle 932" d="M59.577 35.576v-5.647h5.647v5.647z"/>
    <path data-name="Rectangle 933" d="M59.577 5.647V0h5.647v5.647z"/>
    <path data-name="Rectangle 934" d="M89.365 634.163v-5.647h5.647v5.647z"/>
    <path data-name="Rectangle 935" d="M89.365 604.234v-5.647h5.647v5.647z"/>
    <path data-name="Rectangle 936" d="M89.365 574.304v-5.647h5.647v5.647z"/>
    <path data-name="Rectangle 937" d="M89.365 544.375v-5.647h5.647v5.647z"/>
    <path data-name="Rectangle 938" d="M89.365 514.446v-5.647h5.647v5.647z"/>
    <path data-name="Rectangle 939" d="M89.365 484.516v-5.647h5.647v5.647z"/>
    <path data-name="Rectangle 940" d="M89.365 454.587v-5.647h5.647v5.647z"/>
    <path data-name="Rectangle 941" d="M89.365 424.657v-5.647h5.647v5.647z"/>
    <path data-name="Rectangle 942" d="M89.365 394.728v-5.647h5.647v5.647z"/>
    <path data-name="Rectangle 943" d="M89.365 364.799v-5.647h5.647v5.647z"/>
    <path data-name="Rectangle 944" d="M89.365 334.869v-5.647h5.647v5.647z"/>
    <path data-name="Rectangle 945" d="M89.365 304.94v-5.647h5.647v5.647z"/>
    <path data-name="Rectangle 946" d="M89.365 275.011v-5.647h5.647v5.647z"/>
    <path data-name="Rectangle 947" d="M89.365 245.081v-5.647h5.647v5.647z"/>
    <path data-name="Rectangle 948" d="M89.365 215.152v-5.647h5.647v5.647z"/>
    <path data-name="Rectangle 949" d="M89.365 185.223v-5.647h5.647v5.647z"/>
    <path data-name="Rectangle 950" d="M89.365 155.293v-5.647h5.647v5.647z"/>
    <path data-name="Rectangle 951" d="M89.365 125.364v-5.647h5.647v5.647z"/>
    <path data-name="Rectangle 952" d="M89.365 95.435v-5.647h5.647v5.647z"/>
    <path data-name="Rectangle 953" d="M89.365 65.505v-5.647h5.647v5.647z"/>
    <path data-name="Rectangle 954" d="M89.365 35.576v-5.647h5.647v5.647z"/>
    <path data-name="Rectangle 955" d="M89.365 5.647V0h5.647v5.647z"/>
    <path data-name="Rectangle 956" d="M119.153 634.163v-5.647h5.647v5.647z"/>
    <path data-name="Rectangle 957" d="M119.153 604.234v-5.647h5.647v5.647z"/>
    <path data-name="Rectangle 958" d="M119.153 574.304v-5.647h5.647v5.647z"/>
    <path data-name="Rectangle 959" d="M119.153 544.375v-5.647h5.647v5.647z"/>
    <path data-name="Rectangle 960" d="M119.153 514.446v-5.647h5.647v5.647z"/>
    <path data-name="Rectangle 961" d="M119.153 484.516v-5.647h5.647v5.647z"/>
    <path data-name="Rectangle 962" d="M119.153 454.587v-5.647h5.647v5.647z"/>
    <path data-name="Rectangle 963" d="M119.153 424.657v-5.647h5.647v5.647z"/>
    <path data-name="Rectangle 964" d="M119.153 394.728v-5.647h5.647v5.647z"/>
    <path data-name="Rectangle 965" d="M119.153 364.799v-5.647h5.647v5.647z"/>
    <path data-name="Rectangle 966" d="M119.153 334.869v-5.647h5.647v5.647z"/>
    <path data-name="Rectangle 967" d="M119.153 304.94v-5.647h5.647v5.647z"/>
    <path data-name="Rectangle 968" d="M119.153 275.011v-5.647h5.647v5.647z"/>
    <path data-name="Rectangle 969" d="M119.153 245.081v-5.647h5.647v5.647z"/>
    <path data-name="Rectangle 970" d="M119.153 215.152v-5.647h5.647v5.647z"/>
    <path data-name="Rectangle 971" d="M119.153 185.223v-5.647h5.647v5.647z"/>
    <path data-name="Rectangle 972" d="M119.153 155.293v-5.647h5.647v5.647z"/>
    <path data-name="Rectangle 973" d="M119.153 125.364v-5.647h5.647v5.647z"/>
    <path data-name="Rectangle 974" d="M119.153 95.435v-5.647h5.647v5.647z"/>
    <path data-name="Rectangle 975" d="M119.153 65.505v-5.647h5.647v5.647z"/>
    <path data-name="Rectangle 976" d="M119.153 35.576v-5.647h5.647v5.647z"/>
    <path data-name="Rectangle 977" d="M119.153 5.647V0h5.647v5.647z"/>
    <path data-name="Rectangle 978" d="M148.941 634.163v-5.647h5.647v5.647z"/>
    <path data-name="Rectangle 979" d="M148.941 604.234v-5.647h5.647v5.647z"/>
    <path data-name="Rectangle 980" d="M148.941 574.304v-5.647h5.647v5.647z"/>
    <path data-name="Rectangle 981" d="M148.941 544.375v-5.647h5.647v5.647z"/>
    <path data-name="Rectangle 982" d="M148.941 514.446v-5.647h5.647v5.647z"/>
    <path data-name="Rectangle 983" d="M148.941 484.516v-5.647h5.647v5.647z"/>
    <path data-name="Rectangle 984" d="M148.941 454.587v-5.647h5.647v5.647z"/>
    <path data-name="Rectangle 985" d="M148.941 424.657v-5.647h5.647v5.647z"/>
    <path data-name="Rectangle 986" d="M148.941 394.728v-5.647h5.647v5.647z"/>
    <path data-name="Rectangle 987" d="M148.941 364.799v-5.647h5.647v5.647z"/>
    <path data-name="Rectangle 988" d="M148.941 334.869v-5.647h5.647v5.647z"/>
    <path data-name="Rectangle 989" d="M148.941 304.94v-5.647h5.647v5.647z"/>
    <path data-name="Rectangle 990" d="M148.941 275.011v-5.647h5.647v5.647z"/>
    <path data-name="Rectangle 991" d="M148.941 245.081v-5.647h5.647v5.647z"/>
    <path data-name="Rectangle 992" d="M148.941 215.152v-5.647h5.647v5.647z"/>
    <path data-name="Rectangle 993" d="M148.941 185.223v-5.647h5.647v5.647z"/>
    <path data-name="Rectangle 994" d="M148.941 155.293v-5.647h5.647v5.647z"/>
    <path data-name="Rectangle 995" d="M148.941 125.364v-5.647h5.647v5.647z"/>
    <path data-name="Rectangle 996" d="M148.941 95.435v-5.647h5.647v5.647z"/>
    <path data-name="Rectangle 997" d="M148.941 65.505v-5.647h5.647v5.647z"/>
    <path data-name="Rectangle 998" d="M148.941 35.576v-5.647h5.647v5.647z"/>
    <path data-name="Rectangle 999" d="M148.941 5.647V0h5.647v5.647z"/>
  </g>
</svg>
